<?xml version="1.0" encoding="utf-8" standalone="no"?>
<!DOCTYPE svg PUBLIC "-//W3C//DTD SVG 1.1//EN"
  "http://www.w3.org/Graphics/SVG/1.1/DTD/svg11.dtd">
<svg xmlns:xlink="http://www.w3.org/1999/xlink" width="445.086562pt" height="331.674375pt" viewBox="0 0 445.086562 331.674375" xmlns="http://www.w3.org/2000/svg" version="1.1">
 <metadata>
  <rdf:RDF xmlns:dc="http://purl.org/dc/elements/1.1/" xmlns:cc="http://creativecommons.org/ns#" xmlns:rdf="http://www.w3.org/1999/02/22-rdf-syntax-ns#">
   <cc:Work>
    <dc:type rdf:resource="http://purl.org/dc/dcmitype/StillImage"/>
    <dc:date>2023-06-08T17:06:02.367420</dc:date>
    <dc:format>image/svg+xml</dc:format>
    <dc:creator>
     <cc:Agent>
      <dc:title>Matplotlib v3.5.1, https://matplotlib.org/</dc:title>
     </cc:Agent>
    </dc:creator>
   </cc:Work>
  </rdf:RDF>
 </metadata>
 <defs>
  <style type="text/css">*{stroke-linejoin: round; stroke-linecap: butt}</style>
 </defs>
 <g id="figure_1">
  <g id="patch_1">
   <path d="M 0 331.674375 
L 445.086562 331.674375 
L 445.086562 0 
L 0 0 
L 0 331.674375 
z
" style="fill: none"/>
  </g>
  <g id="axes_1">
   <g id="patch_2">
    <path d="M 40.603125 294.118125 
L 431.203125 294.118125 
L 431.203125 22.318125 
L 40.603125 22.318125 
z
" style="fill: #ffffff"/>
   </g>
   <g id="PolyCollection_1">
    <defs>
     <path id="m5e9e7a7268" d="M 58.35767 -296.413393 
L 58.35767 -37.55625 
L 67.234943 -37.55625 
L 67.234943 -37.55625 
L 76.112216 -37.55625 
L 76.112216 -37.55625 
L 84.989489 -37.55625 
L 84.989489 -37.55625 
L 93.866761 -37.55625 
L 93.866761 -37.55625 
L 102.744034 -37.55625 
L 102.744034 -37.55625 
L 111.621307 -37.55625 
L 111.621307 -37.55625 
L 120.49858 -37.55625 
L 120.49858 -37.55625 
L 129.375852 -37.55625 
L 129.375852 -37.55625 
L 138.253125 -37.55625 
L 138.253125 -37.55625 
L 147.130398 -37.55625 
L 147.130398 -37.55625 
L 156.00767 -37.55625 
L 156.00767 -37.55625 
L 164.884943 -37.55625 
L 164.884943 -37.55625 
L 173.762216 -37.55625 
L 173.762216 -37.55625 
L 182.639489 -37.55625 
L 182.639489 -37.55625 
L 191.516761 -37.55625 
L 191.516761 -37.55625 
L 200.394034 -37.55625 
L 200.394034 -37.55625 
L 209.271307 -37.55625 
L 209.271307 -37.55625 
L 218.14858 -37.55625 
L 218.14858 -37.55625 
L 227.025852 -37.55625 
L 227.025852 -37.55625 
L 235.903125 -37.55625 
L 235.903125 -37.55625 
L 244.780398 -37.55625 
L 244.780398 -37.55625 
L 253.65767 -37.55625 
L 253.65767 -37.55625 
L 262.534943 -37.55625 
L 262.534943 -37.55625 
L 271.412216 -37.55625 
L 271.412216 -37.55625 
L 280.289489 -37.55625 
L 280.289489 -37.55625 
L 289.166761 -37.55625 
L 289.166761 -37.55625 
L 298.044034 -37.55625 
L 298.044034 -37.55625 
L 306.921307 -37.55625 
L 306.921307 -37.55625 
L 315.79858 -37.55625 
L 315.79858 -37.55625 
L 324.675852 -37.55625 
L 324.675852 -37.55625 
L 333.553125 -37.55625 
L 333.553125 -37.55625 
L 342.430398 -37.55625 
L 342.430398 -37.55625 
L 351.30767 -37.55625 
L 351.30767 -37.55625 
L 360.184943 -37.55625 
L 360.184943 -37.55625 
L 369.062216 -37.55625 
L 369.062216 -37.55625 
L 377.939489 -37.55625 
L 377.939489 -37.55625 
L 386.816761 -37.55625 
L 386.816761 -37.55625 
L 395.694034 -37.55625 
L 395.694034 -37.55625 
L 404.571307 -37.55625 
L 404.571307 -37.55625 
L 413.44858 -37.55625 
L 413.44858 -37.55625 
L 413.44858 -37.55625 
L 413.44858 -37.55625 
L 413.44858 -37.55625 
L 404.571307 -37.55625 
L 404.571307 -37.55625 
L 395.694034 -37.55625 
L 395.694034 -37.55625 
L 386.816761 -37.55625 
L 386.816761 -37.55625 
L 377.939489 -37.55625 
L 377.939489 -37.55625 
L 369.062216 -37.55625 
L 369.062216 -37.55625 
L 360.184943 -37.55625 
L 360.184943 -37.55625 
L 351.30767 -37.55625 
L 351.30767 -37.55625 
L 342.430398 -37.55625 
L 342.430398 -37.55625 
L 333.553125 -37.55625 
L 333.553125 -37.55625 
L 324.675852 -37.55625 
L 324.675852 -37.55625 
L 315.79858 -37.55625 
L 315.79858 -37.55625 
L 306.921307 -37.55625 
L 306.921307 -37.55625 
L 298.044034 -37.55625 
L 298.044034 -37.55625 
L 289.166761 -37.55625 
L 289.166761 -37.55625 
L 280.289489 -37.55625 
L 280.289489 -37.55625 
L 271.412216 -37.55625 
L 271.412216 -37.55625 
L 262.534943 -37.55625 
L 262.534943 -37.55625 
L 253.65767 -37.55625 
L 253.65767 -37.55625 
L 244.780398 -37.55625 
L 244.780398 -37.55625 
L 235.903125 -37.55625 
L 235.903125 -37.55625 
L 227.025852 -37.55625 
L 227.025852 -37.55625 
L 218.14858 -37.55625 
L 218.14858 -37.55625 
L 209.271307 -37.55625 
L 209.271307 -37.55625 
L 200.394034 -37.55625 
L 200.394034 -37.55625 
L 191.516761 -37.55625 
L 191.516761 -41.307803 
L 182.639489 -41.307803 
L 182.639489 -37.55625 
L 173.762216 -37.55625 
L 173.762216 -41.307803 
L 164.884943 -41.307803 
L 164.884943 -37.55625 
L 156.00767 -37.55625 
L 156.00767 -37.55625 
L 147.130398 -37.55625 
L 147.130398 -37.55625 
L 138.253125 -37.55625 
L 138.253125 -37.55625 
L 129.375852 -37.55625 
L 129.375852 -37.55625 
L 120.49858 -37.55625 
L 120.49858 -45.059356 
L 111.621307 -45.059356 
L 111.621307 -37.55625 
L 102.744034 -37.55625 
L 102.744034 -41.307803 
L 93.866761 -41.307803 
L 93.866761 -37.55625 
L 84.989489 -37.55625 
L 84.989489 -41.307803 
L 76.112216 -41.307803 
L 76.112216 -56.314014 
L 67.234943 -56.314014 
L 67.234943 -296.413393 
L 58.35767 -296.413393 
z
" style="stroke: #2ca02c"/>
    </defs>
    <g clip-path="url(#pddb870b6d4)">
     <use xlink:href="#m5e9e7a7268" x="0" y="331.674375" style="fill: #2ca02c; fill-opacity: 0.25; stroke: #2ca02c"/>
    </g>
   </g>
   <g id="PolyCollection_2">
    <defs>
     <path id="m2969ec7750" d="M 58.35767 -277.655629 
L 58.35767 -37.55625 
L 67.234943 -37.55625 
L 67.234943 -37.55625 
L 76.112216 -37.55625 
L 76.112216 -37.55625 
L 84.989489 -37.55625 
L 84.989489 -37.55625 
L 93.866761 -37.55625 
L 93.866761 -37.55625 
L 102.744034 -37.55625 
L 102.744034 -37.55625 
L 111.621307 -37.55625 
L 111.621307 -37.55625 
L 120.49858 -37.55625 
L 120.49858 -37.55625 
L 129.375852 -37.55625 
L 129.375852 -37.55625 
L 138.253125 -37.55625 
L 138.253125 -37.55625 
L 147.130398 -37.55625 
L 147.130398 -37.55625 
L 156.00767 -37.55625 
L 156.00767 -37.55625 
L 164.884943 -37.55625 
L 164.884943 -37.55625 
L 173.762216 -37.55625 
L 173.762216 -37.55625 
L 182.639489 -37.55625 
L 182.639489 -37.55625 
L 191.516761 -37.55625 
L 191.516761 -37.55625 
L 200.394034 -37.55625 
L 200.394034 -37.55625 
L 209.271307 -37.55625 
L 209.271307 -37.55625 
L 218.14858 -37.55625 
L 218.14858 -37.55625 
L 227.025852 -37.55625 
L 227.025852 -37.55625 
L 235.903125 -37.55625 
L 235.903125 -37.55625 
L 244.780398 -37.55625 
L 244.780398 -37.55625 
L 253.65767 -37.55625 
L 253.65767 -37.55625 
L 262.534943 -37.55625 
L 262.534943 -37.55625 
L 271.412216 -37.55625 
L 271.412216 -37.55625 
L 280.289489 -37.55625 
L 280.289489 -37.55625 
L 289.166761 -37.55625 
L 289.166761 -37.55625 
L 298.044034 -37.55625 
L 298.044034 -37.55625 
L 306.921307 -37.55625 
L 306.921307 -37.55625 
L 315.79858 -37.55625 
L 315.79858 -37.55625 
L 324.675852 -37.55625 
L 324.675852 -37.55625 
L 333.553125 -37.55625 
L 333.553125 -37.55625 
L 342.430398 -37.55625 
L 342.430398 -37.55625 
L 351.30767 -37.55625 
L 351.30767 -37.55625 
L 360.184943 -37.55625 
L 360.184943 -37.55625 
L 369.062216 -37.55625 
L 369.062216 -37.55625 
L 377.939489 -37.55625 
L 377.939489 -37.55625 
L 386.816761 -37.55625 
L 386.816761 -37.55625 
L 395.694034 -37.55625 
L 395.694034 -37.55625 
L 404.571307 -37.55625 
L 404.571307 -37.55625 
L 413.44858 -37.55625 
L 413.44858 -37.55625 
L 413.44858 -37.55625 
L 413.44858 -37.55625 
L 413.44858 -37.55625 
L 404.571307 -37.55625 
L 404.571307 -37.55625 
L 395.694034 -37.55625 
L 395.694034 -37.55625 
L 386.816761 -37.55625 
L 386.816761 -37.55625 
L 377.939489 -37.55625 
L 377.939489 -37.55625 
L 369.062216 -37.55625 
L 369.062216 -37.55625 
L 360.184943 -37.55625 
L 360.184943 -37.55625 
L 351.30767 -37.55625 
L 351.30767 -37.55625 
L 342.430398 -37.55625 
L 342.430398 -37.55625 
L 333.553125 -37.55625 
L 333.553125 -37.55625 
L 324.675852 -37.55625 
L 324.675852 -37.55625 
L 315.79858 -37.55625 
L 315.79858 -37.55625 
L 306.921307 -37.55625 
L 306.921307 -37.55625 
L 298.044034 -37.55625 
L 298.044034 -37.55625 
L 289.166761 -37.55625 
L 289.166761 -37.55625 
L 280.289489 -37.55625 
L 280.289489 -37.55625 
L 271.412216 -37.55625 
L 271.412216 -37.55625 
L 262.534943 -37.55625 
L 262.534943 -37.55625 
L 253.65767 -37.55625 
L 253.65767 -37.55625 
L 244.780398 -37.55625 
L 244.780398 -37.55625 
L 235.903125 -37.55625 
L 235.903125 -37.55625 
L 227.025852 -37.55625 
L 227.025852 -37.55625 
L 218.14858 -37.55625 
L 218.14858 -37.55625 
L 209.271307 -37.55625 
L 209.271307 -37.55625 
L 200.394034 -37.55625 
L 200.394034 -37.55625 
L 191.516761 -37.55625 
L 191.516761 -37.55625 
L 182.639489 -37.55625 
L 182.639489 -37.55625 
L 173.762216 -37.55625 
L 173.762216 -37.55625 
L 164.884943 -37.55625 
L 164.884943 -37.55625 
L 156.00767 -37.55625 
L 156.00767 -37.55625 
L 147.130398 -37.55625 
L 147.130398 -37.55625 
L 138.253125 -37.55625 
L 138.253125 -37.55625 
L 129.375852 -37.55625 
L 129.375852 -37.55625 
L 120.49858 -37.55625 
L 120.49858 -41.307803 
L 111.621307 -41.307803 
L 111.621307 -37.55625 
L 102.744034 -37.55625 
L 102.744034 -41.307803 
L 93.866761 -41.307803 
L 93.866761 -37.55625 
L 84.989489 -37.55625 
L 84.989489 -48.810908 
L 76.112216 -48.810908 
L 76.112216 -78.823331 
L 67.234943 -78.823331 
L 67.234943 -277.655629 
L 58.35767 -277.655629 
z
" style="stroke: #ff7f0e"/>
    </defs>
    <g clip-path="url(#pddb870b6d4)">
     <use xlink:href="#m2969ec7750" x="0" y="331.674375" style="fill: #ff7f0e; fill-opacity: 0.25; stroke: #ff7f0e"/>
    </g>
   </g>
   <g id="PolyCollection_3">
    <defs>
     <path id="m5b8413e3ea" d="M 58.35767 -217.630784 
L 58.35767 -37.55625 
L 67.234943 -37.55625 
L 67.234943 -37.55625 
L 76.112216 -37.55625 
L 76.112216 -37.55625 
L 84.989489 -37.55625 
L 84.989489 -37.55625 
L 93.866761 -37.55625 
L 93.866761 -37.55625 
L 102.744034 -37.55625 
L 102.744034 -37.55625 
L 111.621307 -37.55625 
L 111.621307 -37.55625 
L 120.49858 -37.55625 
L 120.49858 -37.55625 
L 129.375852 -37.55625 
L 129.375852 -37.55625 
L 138.253125 -37.55625 
L 138.253125 -37.55625 
L 147.130398 -37.55625 
L 147.130398 -37.55625 
L 156.00767 -37.55625 
L 156.00767 -37.55625 
L 164.884943 -37.55625 
L 164.884943 -37.55625 
L 173.762216 -37.55625 
L 173.762216 -37.55625 
L 182.639489 -37.55625 
L 182.639489 -37.55625 
L 191.516761 -37.55625 
L 191.516761 -37.55625 
L 200.394034 -37.55625 
L 200.394034 -37.55625 
L 209.271307 -37.55625 
L 209.271307 -37.55625 
L 218.14858 -37.55625 
L 218.14858 -37.55625 
L 227.025852 -37.55625 
L 227.025852 -37.55625 
L 235.903125 -37.55625 
L 235.903125 -37.55625 
L 244.780398 -37.55625 
L 244.780398 -37.55625 
L 253.65767 -37.55625 
L 253.65767 -37.55625 
L 262.534943 -37.55625 
L 262.534943 -37.55625 
L 271.412216 -37.55625 
L 271.412216 -37.55625 
L 280.289489 -37.55625 
L 280.289489 -37.55625 
L 289.166761 -37.55625 
L 289.166761 -37.55625 
L 298.044034 -37.55625 
L 298.044034 -37.55625 
L 306.921307 -37.55625 
L 306.921307 -37.55625 
L 315.79858 -37.55625 
L 315.79858 -37.55625 
L 324.675852 -37.55625 
L 324.675852 -37.55625 
L 333.553125 -37.55625 
L 333.553125 -37.55625 
L 342.430398 -37.55625 
L 342.430398 -37.55625 
L 351.30767 -37.55625 
L 351.30767 -37.55625 
L 360.184943 -37.55625 
L 360.184943 -37.55625 
L 369.062216 -37.55625 
L 369.062216 -37.55625 
L 377.939489 -37.55625 
L 377.939489 -37.55625 
L 386.816761 -37.55625 
L 386.816761 -37.55625 
L 395.694034 -37.55625 
L 395.694034 -37.55625 
L 404.571307 -37.55625 
L 404.571307 -37.55625 
L 413.44858 -37.55625 
L 413.44858 -37.55625 
L 413.44858 -41.307803 
L 413.44858 -41.307803 
L 413.44858 -41.307803 
L 404.571307 -41.307803 
L 404.571307 -37.55625 
L 395.694034 -37.55625 
L 395.694034 -37.55625 
L 386.816761 -37.55625 
L 386.816761 -37.55625 
L 377.939489 -37.55625 
L 377.939489 -37.55625 
L 369.062216 -37.55625 
L 369.062216 -37.55625 
L 360.184943 -37.55625 
L 360.184943 -37.55625 
L 351.30767 -37.55625 
L 351.30767 -37.55625 
L 342.430398 -37.55625 
L 342.430398 -37.55625 
L 333.553125 -37.55625 
L 333.553125 -37.55625 
L 324.675852 -37.55625 
L 324.675852 -37.55625 
L 315.79858 -37.55625 
L 315.79858 -37.55625 
L 306.921307 -37.55625 
L 306.921307 -37.55625 
L 298.044034 -37.55625 
L 298.044034 -41.307803 
L 289.166761 -41.307803 
L 289.166761 -37.55625 
L 280.289489 -37.55625 
L 280.289489 -37.55625 
L 271.412216 -37.55625 
L 271.412216 -37.55625 
L 262.534943 -37.55625 
L 262.534943 -37.55625 
L 253.65767 -37.55625 
L 253.65767 -37.55625 
L 244.780398 -37.55625 
L 244.780398 -37.55625 
L 235.903125 -37.55625 
L 235.903125 -37.55625 
L 227.025852 -37.55625 
L 227.025852 -37.55625 
L 218.14858 -37.55625 
L 218.14858 -37.55625 
L 209.271307 -37.55625 
L 209.271307 -37.55625 
L 200.394034 -37.55625 
L 200.394034 -37.55625 
L 191.516761 -37.55625 
L 191.516761 -48.810908 
L 182.639489 -48.810908 
L 182.639489 -37.55625 
L 173.762216 -37.55625 
L 173.762216 -37.55625 
L 164.884943 -37.55625 
L 164.884943 -37.55625 
L 156.00767 -37.55625 
L 156.00767 -37.55625 
L 147.130398 -37.55625 
L 147.130398 -41.307803 
L 138.253125 -41.307803 
L 138.253125 -45.059356 
L 129.375852 -45.059356 
L 129.375852 -45.059356 
L 120.49858 -45.059356 
L 120.49858 -45.059356 
L 111.621307 -45.059356 
L 111.621307 -45.059356 
L 102.744034 -45.059356 
L 102.744034 -45.059356 
L 93.866761 -45.059356 
L 93.866761 -48.810908 
L 84.989489 -48.810908 
L 84.989489 -56.314014 
L 76.112216 -56.314014 
L 76.112216 -67.568672 
L 67.234943 -67.568672 
L 67.234943 -217.630784 
L 58.35767 -217.630784 
z
" style="stroke: #1f77b4"/>
    </defs>
    <g clip-path="url(#pddb870b6d4)">
     <use xlink:href="#m5b8413e3ea" x="0" y="331.674375" style="fill: #1f77b4; fill-opacity: 0.25; stroke: #1f77b4"/>
    </g>
   </g>
   <g id="matplotlib.axis_1">
    <g id="xtick_1">
     <g id="line2d_1">
      <defs>
       <path id="m37f9045316" d="M 0 0 
L 0 3.5 
" style="stroke: #000000; stroke-width: 0.8"/>
      </defs>
      <g>
       <use xlink:href="#m37f9045316" x="58.357636" y="294.118125" style="stroke: #000000; stroke-width: 0.8"/>
      </g>
     </g>
     <g id="text_1">
      <!-- 1.00 -->
      <g transform="translate(47.224823 308.716563)scale(0.1 -0.1)">
       <defs>
        <path id="DejaVuSans-31" d="M 794 531 
L 1825 531 
L 1825 4091 
L 703 3866 
L 703 4441 
L 1819 4666 
L 2450 4666 
L 2450 531 
L 3481 531 
L 3481 0 
L 794 0 
L 794 531 
z
" transform="scale(0.015625)"/>
        <path id="DejaVuSans-2e" d="M 684 794 
L 1344 794 
L 1344 0 
L 684 0 
L 684 794 
z
" transform="scale(0.015625)"/>
        <path id="DejaVuSans-30" d="M 2034 4250 
Q 1547 4250 1301 3770 
Q 1056 3291 1056 2328 
Q 1056 1369 1301 889 
Q 1547 409 2034 409 
Q 2525 409 2770 889 
Q 3016 1369 3016 2328 
Q 3016 3291 2770 3770 
Q 2525 4250 2034 4250 
z
M 2034 4750 
Q 2819 4750 3233 4129 
Q 3647 3509 3647 2328 
Q 3647 1150 3233 529 
Q 2819 -91 2034 -91 
Q 1250 -91 836 529 
Q 422 1150 422 2328 
Q 422 3509 836 4129 
Q 1250 4750 2034 4750 
z
" transform="scale(0.015625)"/>
       </defs>
       <use xlink:href="#DejaVuSans-31"/>
       <use xlink:href="#DejaVuSans-2e" x="63.623047"/>
       <use xlink:href="#DejaVuSans-30" x="95.410156"/>
       <use xlink:href="#DejaVuSans-30" x="159.033203"/>
      </g>
     </g>
    </g>
    <g id="xtick_2">
     <g id="line2d_2">
      <g>
       <use xlink:href="#m37f9045316" x="107.964909" y="294.118125" style="stroke: #000000; stroke-width: 0.8"/>
      </g>
     </g>
     <g id="text_2">
      <!-- 1.25 -->
      <g transform="translate(96.832096 308.716563)scale(0.1 -0.1)">
       <defs>
        <path id="DejaVuSans-32" d="M 1228 531 
L 3431 531 
L 3431 0 
L 469 0 
L 469 531 
Q 828 903 1448 1529 
Q 2069 2156 2228 2338 
Q 2531 2678 2651 2914 
Q 2772 3150 2772 3378 
Q 2772 3750 2511 3984 
Q 2250 4219 1831 4219 
Q 1534 4219 1204 4116 
Q 875 4013 500 3803 
L 500 4441 
Q 881 4594 1212 4672 
Q 1544 4750 1819 4750 
Q 2544 4750 2975 4387 
Q 3406 4025 3406 3419 
Q 3406 3131 3298 2873 
Q 3191 2616 2906 2266 
Q 2828 2175 2409 1742 
Q 1991 1309 1228 531 
z
" transform="scale(0.015625)"/>
        <path id="DejaVuSans-35" d="M 691 4666 
L 3169 4666 
L 3169 4134 
L 1269 4134 
L 1269 2991 
Q 1406 3038 1543 3061 
Q 1681 3084 1819 3084 
Q 2600 3084 3056 2656 
Q 3513 2228 3513 1497 
Q 3513 744 3044 326 
Q 2575 -91 1722 -91 
Q 1428 -91 1123 -41 
Q 819 9 494 109 
L 494 744 
Q 775 591 1075 516 
Q 1375 441 1709 441 
Q 2250 441 2565 725 
Q 2881 1009 2881 1497 
Q 2881 1984 2565 2268 
Q 2250 2553 1709 2553 
Q 1456 2553 1204 2497 
Q 953 2441 691 2322 
L 691 4666 
z
" transform="scale(0.015625)"/>
       </defs>
       <use xlink:href="#DejaVuSans-31"/>
       <use xlink:href="#DejaVuSans-2e" x="63.623047"/>
       <use xlink:href="#DejaVuSans-32" x="95.410156"/>
       <use xlink:href="#DejaVuSans-35" x="159.033203"/>
      </g>
     </g>
    </g>
    <g id="xtick_3">
     <g id="line2d_3">
      <g>
       <use xlink:href="#m37f9045316" x="157.572182" y="294.118125" style="stroke: #000000; stroke-width: 0.8"/>
      </g>
     </g>
     <g id="text_3">
      <!-- 1.50 -->
      <g transform="translate(146.43937 308.716563)scale(0.1 -0.1)">
       <use xlink:href="#DejaVuSans-31"/>
       <use xlink:href="#DejaVuSans-2e" x="63.623047"/>
       <use xlink:href="#DejaVuSans-35" x="95.410156"/>
       <use xlink:href="#DejaVuSans-30" x="159.033203"/>
      </g>
     </g>
    </g>
    <g id="xtick_4">
     <g id="line2d_4">
      <g>
       <use xlink:href="#m37f9045316" x="207.179455" y="294.118125" style="stroke: #000000; stroke-width: 0.8"/>
      </g>
     </g>
     <g id="text_4">
      <!-- 1.75 -->
      <g transform="translate(196.046643 308.716563)scale(0.1 -0.1)">
       <defs>
        <path id="DejaVuSans-37" d="M 525 4666 
L 3525 4666 
L 3525 4397 
L 1831 0 
L 1172 0 
L 2766 4134 
L 525 4134 
L 525 4666 
z
" transform="scale(0.015625)"/>
       </defs>
       <use xlink:href="#DejaVuSans-31"/>
       <use xlink:href="#DejaVuSans-2e" x="63.623047"/>
       <use xlink:href="#DejaVuSans-37" x="95.410156"/>
       <use xlink:href="#DejaVuSans-35" x="159.033203"/>
      </g>
     </g>
    </g>
    <g id="xtick_5">
     <g id="line2d_5">
      <g>
       <use xlink:href="#m37f9045316" x="256.786729" y="294.118125" style="stroke: #000000; stroke-width: 0.8"/>
      </g>
     </g>
     <g id="text_5">
      <!-- 2.00 -->
      <g transform="translate(245.653916 308.716563)scale(0.1 -0.1)">
       <use xlink:href="#DejaVuSans-32"/>
       <use xlink:href="#DejaVuSans-2e" x="63.623047"/>
       <use xlink:href="#DejaVuSans-30" x="95.410156"/>
       <use xlink:href="#DejaVuSans-30" x="159.033203"/>
      </g>
     </g>
    </g>
    <g id="xtick_6">
     <g id="line2d_6">
      <g>
       <use xlink:href="#m37f9045316" x="306.394002" y="294.118125" style="stroke: #000000; stroke-width: 0.8"/>
      </g>
     </g>
     <g id="text_6">
      <!-- 2.25 -->
      <g transform="translate(295.26119 308.716563)scale(0.1 -0.1)">
       <use xlink:href="#DejaVuSans-32"/>
       <use xlink:href="#DejaVuSans-2e" x="63.623047"/>
       <use xlink:href="#DejaVuSans-32" x="95.410156"/>
       <use xlink:href="#DejaVuSans-35" x="159.033203"/>
      </g>
     </g>
    </g>
    <g id="xtick_7">
     <g id="line2d_7">
      <g>
       <use xlink:href="#m37f9045316" x="356.001275" y="294.118125" style="stroke: #000000; stroke-width: 0.8"/>
      </g>
     </g>
     <g id="text_7">
      <!-- 2.50 -->
      <g transform="translate(344.868463 308.716563)scale(0.1 -0.1)">
       <use xlink:href="#DejaVuSans-32"/>
       <use xlink:href="#DejaVuSans-2e" x="63.623047"/>
       <use xlink:href="#DejaVuSans-35" x="95.410156"/>
       <use xlink:href="#DejaVuSans-30" x="159.033203"/>
      </g>
     </g>
    </g>
    <g id="xtick_8">
     <g id="line2d_8">
      <g>
       <use xlink:href="#m37f9045316" x="405.608549" y="294.118125" style="stroke: #000000; stroke-width: 0.8"/>
      </g>
     </g>
     <g id="text_8">
      <!-- 2.75 -->
      <g transform="translate(394.475736 308.716563)scale(0.1 -0.1)">
       <use xlink:href="#DejaVuSans-32"/>
       <use xlink:href="#DejaVuSans-2e" x="63.623047"/>
       <use xlink:href="#DejaVuSans-37" x="95.410156"/>
       <use xlink:href="#DejaVuSans-35" x="159.033203"/>
      </g>
     </g>
    </g>
    <g id="text_9">
     <!-- Ratio Inertia -->
     <g transform="translate(205.290625 322.394687)scale(0.1 -0.1)">
      <defs>
       <path id="DejaVuSans-52" d="M 2841 2188 
Q 3044 2119 3236 1894 
Q 3428 1669 3622 1275 
L 4263 0 
L 3584 0 
L 2988 1197 
Q 2756 1666 2539 1819 
Q 2322 1972 1947 1972 
L 1259 1972 
L 1259 0 
L 628 0 
L 628 4666 
L 2053 4666 
Q 2853 4666 3247 4331 
Q 3641 3997 3641 3322 
Q 3641 2881 3436 2590 
Q 3231 2300 2841 2188 
z
M 1259 4147 
L 1259 2491 
L 2053 2491 
Q 2509 2491 2742 2702 
Q 2975 2913 2975 3322 
Q 2975 3731 2742 3939 
Q 2509 4147 2053 4147 
L 1259 4147 
z
" transform="scale(0.015625)"/>
       <path id="DejaVuSans-61" d="M 2194 1759 
Q 1497 1759 1228 1600 
Q 959 1441 959 1056 
Q 959 750 1161 570 
Q 1363 391 1709 391 
Q 2188 391 2477 730 
Q 2766 1069 2766 1631 
L 2766 1759 
L 2194 1759 
z
M 3341 1997 
L 3341 0 
L 2766 0 
L 2766 531 
Q 2569 213 2275 61 
Q 1981 -91 1556 -91 
Q 1019 -91 701 211 
Q 384 513 384 1019 
Q 384 1609 779 1909 
Q 1175 2209 1959 2209 
L 2766 2209 
L 2766 2266 
Q 2766 2663 2505 2880 
Q 2244 3097 1772 3097 
Q 1472 3097 1187 3025 
Q 903 2953 641 2809 
L 641 3341 
Q 956 3463 1253 3523 
Q 1550 3584 1831 3584 
Q 2591 3584 2966 3190 
Q 3341 2797 3341 1997 
z
" transform="scale(0.015625)"/>
       <path id="DejaVuSans-74" d="M 1172 4494 
L 1172 3500 
L 2356 3500 
L 2356 3053 
L 1172 3053 
L 1172 1153 
Q 1172 725 1289 603 
Q 1406 481 1766 481 
L 2356 481 
L 2356 0 
L 1766 0 
Q 1100 0 847 248 
Q 594 497 594 1153 
L 594 3053 
L 172 3053 
L 172 3500 
L 594 3500 
L 594 4494 
L 1172 4494 
z
" transform="scale(0.015625)"/>
       <path id="DejaVuSans-69" d="M 603 3500 
L 1178 3500 
L 1178 0 
L 603 0 
L 603 3500 
z
M 603 4863 
L 1178 4863 
L 1178 4134 
L 603 4134 
L 603 4863 
z
" transform="scale(0.015625)"/>
       <path id="DejaVuSans-6f" d="M 1959 3097 
Q 1497 3097 1228 2736 
Q 959 2375 959 1747 
Q 959 1119 1226 758 
Q 1494 397 1959 397 
Q 2419 397 2687 759 
Q 2956 1122 2956 1747 
Q 2956 2369 2687 2733 
Q 2419 3097 1959 3097 
z
M 1959 3584 
Q 2709 3584 3137 3096 
Q 3566 2609 3566 1747 
Q 3566 888 3137 398 
Q 2709 -91 1959 -91 
Q 1206 -91 779 398 
Q 353 888 353 1747 
Q 353 2609 779 3096 
Q 1206 3584 1959 3584 
z
" transform="scale(0.015625)"/>
       <path id="DejaVuSans-20" transform="scale(0.015625)"/>
       <path id="DejaVuSans-49" d="M 628 4666 
L 1259 4666 
L 1259 0 
L 628 0 
L 628 4666 
z
" transform="scale(0.015625)"/>
       <path id="DejaVuSans-6e" d="M 3513 2113 
L 3513 0 
L 2938 0 
L 2938 2094 
Q 2938 2591 2744 2837 
Q 2550 3084 2163 3084 
Q 1697 3084 1428 2787 
Q 1159 2491 1159 1978 
L 1159 0 
L 581 0 
L 581 3500 
L 1159 3500 
L 1159 2956 
Q 1366 3272 1645 3428 
Q 1925 3584 2291 3584 
Q 2894 3584 3203 3211 
Q 3513 2838 3513 2113 
z
" transform="scale(0.015625)"/>
       <path id="DejaVuSans-65" d="M 3597 1894 
L 3597 1613 
L 953 1613 
Q 991 1019 1311 708 
Q 1631 397 2203 397 
Q 2534 397 2845 478 
Q 3156 559 3463 722 
L 3463 178 
Q 3153 47 2828 -22 
Q 2503 -91 2169 -91 
Q 1331 -91 842 396 
Q 353 884 353 1716 
Q 353 2575 817 3079 
Q 1281 3584 2069 3584 
Q 2775 3584 3186 3129 
Q 3597 2675 3597 1894 
z
M 3022 2063 
Q 3016 2534 2758 2815 
Q 2500 3097 2075 3097 
Q 1594 3097 1305 2825 
Q 1016 2553 972 2059 
L 3022 2063 
z
" transform="scale(0.015625)"/>
       <path id="DejaVuSans-72" d="M 2631 2963 
Q 2534 3019 2420 3045 
Q 2306 3072 2169 3072 
Q 1681 3072 1420 2755 
Q 1159 2438 1159 1844 
L 1159 0 
L 581 0 
L 581 3500 
L 1159 3500 
L 1159 2956 
Q 1341 3275 1631 3429 
Q 1922 3584 2338 3584 
Q 2397 3584 2469 3576 
Q 2541 3569 2628 3553 
L 2631 2963 
z
" transform="scale(0.015625)"/>
      </defs>
      <use xlink:href="#DejaVuSans-52"/>
      <use xlink:href="#DejaVuSans-61" x="67.232422"/>
      <use xlink:href="#DejaVuSans-74" x="128.511719"/>
      <use xlink:href="#DejaVuSans-69" x="167.720703"/>
      <use xlink:href="#DejaVuSans-6f" x="195.503906"/>
      <use xlink:href="#DejaVuSans-20" x="256.685547"/>
      <use xlink:href="#DejaVuSans-49" x="288.472656"/>
      <use xlink:href="#DejaVuSans-6e" x="317.964844"/>
      <use xlink:href="#DejaVuSans-65" x="381.34375"/>
      <use xlink:href="#DejaVuSans-72" x="442.867188"/>
      <use xlink:href="#DejaVuSans-74" x="483.980469"/>
      <use xlink:href="#DejaVuSans-69" x="523.189453"/>
      <use xlink:href="#DejaVuSans-61" x="550.972656"/>
     </g>
    </g>
   </g>
   <g id="matplotlib.axis_2">
    <g id="ytick_1">
     <g id="line2d_9">
      <defs>
       <path id="mb9f98658ce" d="M 0 0 
L -3.5 0 
" style="stroke: #000000; stroke-width: 0.8"/>
      </defs>
      <g>
       <use xlink:href="#mb9f98658ce" x="40.603125" y="294.118125" style="stroke: #000000; stroke-width: 0.8"/>
      </g>
     </g>
     <g id="text_10">
      <!-- 0 -->
      <g transform="translate(27.240625 297.917344)scale(0.1 -0.1)">
       <use xlink:href="#DejaVuSans-30"/>
      </g>
     </g>
    </g>
    <g id="ytick_2">
     <g id="line2d_10">
      <g>
       <use xlink:href="#mb9f98658ce" x="40.603125" y="256.602597" style="stroke: #000000; stroke-width: 0.8"/>
      </g>
     </g>
     <g id="text_11">
      <!-- 10 -->
      <g transform="translate(20.878125 260.401816)scale(0.1 -0.1)">
       <use xlink:href="#DejaVuSans-31"/>
       <use xlink:href="#DejaVuSans-30" x="63.623047"/>
      </g>
     </g>
    </g>
    <g id="ytick_3">
     <g id="line2d_11">
      <g>
       <use xlink:href="#mb9f98658ce" x="40.603125" y="219.087069" style="stroke: #000000; stroke-width: 0.8"/>
      </g>
     </g>
     <g id="text_12">
      <!-- 20 -->
      <g transform="translate(20.878125 222.886288)scale(0.1 -0.1)">
       <use xlink:href="#DejaVuSans-32"/>
       <use xlink:href="#DejaVuSans-30" x="63.623047"/>
      </g>
     </g>
    </g>
    <g id="ytick_4">
     <g id="line2d_12">
      <g>
       <use xlink:href="#mb9f98658ce" x="40.603125" y="181.571541" style="stroke: #000000; stroke-width: 0.8"/>
      </g>
     </g>
     <g id="text_13">
      <!-- 30 -->
      <g transform="translate(20.878125 185.37076)scale(0.1 -0.1)">
       <defs>
        <path id="DejaVuSans-33" d="M 2597 2516 
Q 3050 2419 3304 2112 
Q 3559 1806 3559 1356 
Q 3559 666 3084 287 
Q 2609 -91 1734 -91 
Q 1441 -91 1130 -33 
Q 819 25 488 141 
L 488 750 
Q 750 597 1062 519 
Q 1375 441 1716 441 
Q 2309 441 2620 675 
Q 2931 909 2931 1356 
Q 2931 1769 2642 2001 
Q 2353 2234 1838 2234 
L 1294 2234 
L 1294 2753 
L 1863 2753 
Q 2328 2753 2575 2939 
Q 2822 3125 2822 3475 
Q 2822 3834 2567 4026 
Q 2313 4219 1838 4219 
Q 1578 4219 1281 4162 
Q 984 4106 628 3988 
L 628 4550 
Q 988 4650 1302 4700 
Q 1616 4750 1894 4750 
Q 2613 4750 3031 4423 
Q 3450 4097 3450 3541 
Q 3450 3153 3228 2886 
Q 3006 2619 2597 2516 
z
" transform="scale(0.015625)"/>
       </defs>
       <use xlink:href="#DejaVuSans-33"/>
       <use xlink:href="#DejaVuSans-30" x="63.623047"/>
      </g>
     </g>
    </g>
    <g id="ytick_5">
     <g id="line2d_13">
      <g>
       <use xlink:href="#mb9f98658ce" x="40.603125" y="144.056013" style="stroke: #000000; stroke-width: 0.8"/>
      </g>
     </g>
     <g id="text_14">
      <!-- 40 -->
      <g transform="translate(20.878125 147.855232)scale(0.1 -0.1)">
       <defs>
        <path id="DejaVuSans-34" d="M 2419 4116 
L 825 1625 
L 2419 1625 
L 2419 4116 
z
M 2253 4666 
L 3047 4666 
L 3047 1625 
L 3713 1625 
L 3713 1100 
L 3047 1100 
L 3047 0 
L 2419 0 
L 2419 1100 
L 313 1100 
L 313 1709 
L 2253 4666 
z
" transform="scale(0.015625)"/>
       </defs>
       <use xlink:href="#DejaVuSans-34"/>
       <use xlink:href="#DejaVuSans-30" x="63.623047"/>
      </g>
     </g>
    </g>
    <g id="ytick_6">
     <g id="line2d_14">
      <g>
       <use xlink:href="#mb9f98658ce" x="40.603125" y="106.540485" style="stroke: #000000; stroke-width: 0.8"/>
      </g>
     </g>
     <g id="text_15">
      <!-- 50 -->
      <g transform="translate(20.878125 110.339704)scale(0.1 -0.1)">
       <use xlink:href="#DejaVuSans-35"/>
       <use xlink:href="#DejaVuSans-30" x="63.623047"/>
      </g>
     </g>
    </g>
    <g id="ytick_7">
     <g id="line2d_15">
      <g>
       <use xlink:href="#mb9f98658ce" x="40.603125" y="69.024957" style="stroke: #000000; stroke-width: 0.8"/>
      </g>
     </g>
     <g id="text_16">
      <!-- 60 -->
      <g transform="translate(20.878125 72.824176)scale(0.1 -0.1)">
       <defs>
        <path id="DejaVuSans-36" d="M 2113 2584 
Q 1688 2584 1439 2293 
Q 1191 2003 1191 1497 
Q 1191 994 1439 701 
Q 1688 409 2113 409 
Q 2538 409 2786 701 
Q 3034 994 3034 1497 
Q 3034 2003 2786 2293 
Q 2538 2584 2113 2584 
z
M 3366 4563 
L 3366 3988 
Q 3128 4100 2886 4159 
Q 2644 4219 2406 4219 
Q 1781 4219 1451 3797 
Q 1122 3375 1075 2522 
Q 1259 2794 1537 2939 
Q 1816 3084 2150 3084 
Q 2853 3084 3261 2657 
Q 3669 2231 3669 1497 
Q 3669 778 3244 343 
Q 2819 -91 2113 -91 
Q 1303 -91 875 529 
Q 447 1150 447 2328 
Q 447 3434 972 4092 
Q 1497 4750 2381 4750 
Q 2619 4750 2861 4703 
Q 3103 4656 3366 4563 
z
" transform="scale(0.015625)"/>
       </defs>
       <use xlink:href="#DejaVuSans-36"/>
       <use xlink:href="#DejaVuSans-30" x="63.623047"/>
      </g>
     </g>
    </g>
    <g id="ytick_8">
     <g id="line2d_16">
      <g>
       <use xlink:href="#mb9f98658ce" x="40.603125" y="31.509429" style="stroke: #000000; stroke-width: 0.8"/>
      </g>
     </g>
     <g id="text_17">
      <!-- 70 -->
      <g transform="translate(20.878125 35.308648)scale(0.1 -0.1)">
       <use xlink:href="#DejaVuSans-37"/>
       <use xlink:href="#DejaVuSans-30" x="63.623047"/>
      </g>
     </g>
    </g>
    <g id="text_18">
     <!-- Count -->
     <g transform="translate(14.798438 173.066563)rotate(-90)scale(0.1 -0.1)">
      <defs>
       <path id="DejaVuSans-43" d="M 4122 4306 
L 4122 3641 
Q 3803 3938 3442 4084 
Q 3081 4231 2675 4231 
Q 1875 4231 1450 3742 
Q 1025 3253 1025 2328 
Q 1025 1406 1450 917 
Q 1875 428 2675 428 
Q 3081 428 3442 575 
Q 3803 722 4122 1019 
L 4122 359 
Q 3791 134 3420 21 
Q 3050 -91 2638 -91 
Q 1578 -91 968 557 
Q 359 1206 359 2328 
Q 359 3453 968 4101 
Q 1578 4750 2638 4750 
Q 3056 4750 3426 4639 
Q 3797 4528 4122 4306 
z
" transform="scale(0.015625)"/>
       <path id="DejaVuSans-75" d="M 544 1381 
L 544 3500 
L 1119 3500 
L 1119 1403 
Q 1119 906 1312 657 
Q 1506 409 1894 409 
Q 2359 409 2629 706 
Q 2900 1003 2900 1516 
L 2900 3500 
L 3475 3500 
L 3475 0 
L 2900 0 
L 2900 538 
Q 2691 219 2414 64 
Q 2138 -91 1772 -91 
Q 1169 -91 856 284 
Q 544 659 544 1381 
z
M 1991 3584 
L 1991 3584 
z
" transform="scale(0.015625)"/>
      </defs>
      <use xlink:href="#DejaVuSans-43"/>
      <use xlink:href="#DejaVuSans-6f" x="69.824219"/>
      <use xlink:href="#DejaVuSans-75" x="131.005859"/>
      <use xlink:href="#DejaVuSans-6e" x="194.384766"/>
      <use xlink:href="#DejaVuSans-74" x="257.763672"/>
     </g>
    </g>
   </g>
   <g id="patch_3">
    <path d="M 40.603125 294.118125 
L 40.603125 22.318125 
" style="fill: none; stroke: #000000; stroke-width: 0.8; stroke-linejoin: miter; stroke-linecap: square"/>
   </g>
   <g id="patch_4">
    <path d="M 431.203125 294.118125 
L 431.203125 22.318125 
" style="fill: none; stroke: #000000; stroke-width: 0.8; stroke-linejoin: miter; stroke-linecap: square"/>
   </g>
   <g id="patch_5">
    <path d="M 40.603125 294.118125 
L 431.203125 294.118125 
" style="fill: none; stroke: #000000; stroke-width: 0.8; stroke-linejoin: miter; stroke-linecap: square"/>
   </g>
   <g id="patch_6">
    <path d="M 40.603125 22.318125 
L 431.203125 22.318125 
" style="fill: none; stroke: #000000; stroke-width: 0.8; stroke-linejoin: miter; stroke-linecap: square"/>
   </g>
   <g id="text_19">
    <!-- Histogram of ratio inertia Vanilla, K-Means++, Speculative K-Means -->
    <g transform="translate(33.919688 16.318125)scale(0.12 -0.12)">
     <defs>
      <path id="DejaVuSans-48" d="M 628 4666 
L 1259 4666 
L 1259 2753 
L 3553 2753 
L 3553 4666 
L 4184 4666 
L 4184 0 
L 3553 0 
L 3553 2222 
L 1259 2222 
L 1259 0 
L 628 0 
L 628 4666 
z
" transform="scale(0.015625)"/>
      <path id="DejaVuSans-73" d="M 2834 3397 
L 2834 2853 
Q 2591 2978 2328 3040 
Q 2066 3103 1784 3103 
Q 1356 3103 1142 2972 
Q 928 2841 928 2578 
Q 928 2378 1081 2264 
Q 1234 2150 1697 2047 
L 1894 2003 
Q 2506 1872 2764 1633 
Q 3022 1394 3022 966 
Q 3022 478 2636 193 
Q 2250 -91 1575 -91 
Q 1294 -91 989 -36 
Q 684 19 347 128 
L 347 722 
Q 666 556 975 473 
Q 1284 391 1588 391 
Q 1994 391 2212 530 
Q 2431 669 2431 922 
Q 2431 1156 2273 1281 
Q 2116 1406 1581 1522 
L 1381 1569 
Q 847 1681 609 1914 
Q 372 2147 372 2553 
Q 372 3047 722 3315 
Q 1072 3584 1716 3584 
Q 2034 3584 2315 3537 
Q 2597 3491 2834 3397 
z
" transform="scale(0.015625)"/>
      <path id="DejaVuSans-67" d="M 2906 1791 
Q 2906 2416 2648 2759 
Q 2391 3103 1925 3103 
Q 1463 3103 1205 2759 
Q 947 2416 947 1791 
Q 947 1169 1205 825 
Q 1463 481 1925 481 
Q 2391 481 2648 825 
Q 2906 1169 2906 1791 
z
M 3481 434 
Q 3481 -459 3084 -895 
Q 2688 -1331 1869 -1331 
Q 1566 -1331 1297 -1286 
Q 1028 -1241 775 -1147 
L 775 -588 
Q 1028 -725 1275 -790 
Q 1522 -856 1778 -856 
Q 2344 -856 2625 -561 
Q 2906 -266 2906 331 
L 2906 616 
Q 2728 306 2450 153 
Q 2172 0 1784 0 
Q 1141 0 747 490 
Q 353 981 353 1791 
Q 353 2603 747 3093 
Q 1141 3584 1784 3584 
Q 2172 3584 2450 3431 
Q 2728 3278 2906 2969 
L 2906 3500 
L 3481 3500 
L 3481 434 
z
" transform="scale(0.015625)"/>
      <path id="DejaVuSans-6d" d="M 3328 2828 
Q 3544 3216 3844 3400 
Q 4144 3584 4550 3584 
Q 5097 3584 5394 3201 
Q 5691 2819 5691 2113 
L 5691 0 
L 5113 0 
L 5113 2094 
Q 5113 2597 4934 2840 
Q 4756 3084 4391 3084 
Q 3944 3084 3684 2787 
Q 3425 2491 3425 1978 
L 3425 0 
L 2847 0 
L 2847 2094 
Q 2847 2600 2669 2842 
Q 2491 3084 2119 3084 
Q 1678 3084 1418 2786 
Q 1159 2488 1159 1978 
L 1159 0 
L 581 0 
L 581 3500 
L 1159 3500 
L 1159 2956 
Q 1356 3278 1631 3431 
Q 1906 3584 2284 3584 
Q 2666 3584 2933 3390 
Q 3200 3197 3328 2828 
z
" transform="scale(0.015625)"/>
      <path id="DejaVuSans-66" d="M 2375 4863 
L 2375 4384 
L 1825 4384 
Q 1516 4384 1395 4259 
Q 1275 4134 1275 3809 
L 1275 3500 
L 2222 3500 
L 2222 3053 
L 1275 3053 
L 1275 0 
L 697 0 
L 697 3053 
L 147 3053 
L 147 3500 
L 697 3500 
L 697 3744 
Q 697 4328 969 4595 
Q 1241 4863 1831 4863 
L 2375 4863 
z
" transform="scale(0.015625)"/>
      <path id="DejaVuSans-56" d="M 1831 0 
L 50 4666 
L 709 4666 
L 2188 738 
L 3669 4666 
L 4325 4666 
L 2547 0 
L 1831 0 
z
" transform="scale(0.015625)"/>
      <path id="DejaVuSans-6c" d="M 603 4863 
L 1178 4863 
L 1178 0 
L 603 0 
L 603 4863 
z
" transform="scale(0.015625)"/>
      <path id="DejaVuSans-2c" d="M 750 794 
L 1409 794 
L 1409 256 
L 897 -744 
L 494 -744 
L 750 256 
L 750 794 
z
" transform="scale(0.015625)"/>
      <path id="DejaVuSans-4b" d="M 628 4666 
L 1259 4666 
L 1259 2694 
L 3353 4666 
L 4166 4666 
L 1850 2491 
L 4331 0 
L 3500 0 
L 1259 2247 
L 1259 0 
L 628 0 
L 628 4666 
z
" transform="scale(0.015625)"/>
      <path id="DejaVuSans-2d" d="M 313 2009 
L 1997 2009 
L 1997 1497 
L 313 1497 
L 313 2009 
z
" transform="scale(0.015625)"/>
      <path id="DejaVuSans-4d" d="M 628 4666 
L 1569 4666 
L 2759 1491 
L 3956 4666 
L 4897 4666 
L 4897 0 
L 4281 0 
L 4281 4097 
L 3078 897 
L 2444 897 
L 1241 4097 
L 1241 0 
L 628 0 
L 628 4666 
z
" transform="scale(0.015625)"/>
      <path id="DejaVuSans-2b" d="M 2944 4013 
L 2944 2272 
L 4684 2272 
L 4684 1741 
L 2944 1741 
L 2944 0 
L 2419 0 
L 2419 1741 
L 678 1741 
L 678 2272 
L 2419 2272 
L 2419 4013 
L 2944 4013 
z
" transform="scale(0.015625)"/>
      <path id="DejaVuSans-53" d="M 3425 4513 
L 3425 3897 
Q 3066 4069 2747 4153 
Q 2428 4238 2131 4238 
Q 1616 4238 1336 4038 
Q 1056 3838 1056 3469 
Q 1056 3159 1242 3001 
Q 1428 2844 1947 2747 
L 2328 2669 
Q 3034 2534 3370 2195 
Q 3706 1856 3706 1288 
Q 3706 609 3251 259 
Q 2797 -91 1919 -91 
Q 1588 -91 1214 -16 
Q 841 59 441 206 
L 441 856 
Q 825 641 1194 531 
Q 1563 422 1919 422 
Q 2459 422 2753 634 
Q 3047 847 3047 1241 
Q 3047 1584 2836 1778 
Q 2625 1972 2144 2069 
L 1759 2144 
Q 1053 2284 737 2584 
Q 422 2884 422 3419 
Q 422 4038 858 4394 
Q 1294 4750 2059 4750 
Q 2388 4750 2728 4690 
Q 3069 4631 3425 4513 
z
" transform="scale(0.015625)"/>
      <path id="DejaVuSans-70" d="M 1159 525 
L 1159 -1331 
L 581 -1331 
L 581 3500 
L 1159 3500 
L 1159 2969 
Q 1341 3281 1617 3432 
Q 1894 3584 2278 3584 
Q 2916 3584 3314 3078 
Q 3713 2572 3713 1747 
Q 3713 922 3314 415 
Q 2916 -91 2278 -91 
Q 1894 -91 1617 61 
Q 1341 213 1159 525 
z
M 3116 1747 
Q 3116 2381 2855 2742 
Q 2594 3103 2138 3103 
Q 1681 3103 1420 2742 
Q 1159 2381 1159 1747 
Q 1159 1113 1420 752 
Q 1681 391 2138 391 
Q 2594 391 2855 752 
Q 3116 1113 3116 1747 
z
" transform="scale(0.015625)"/>
      <path id="DejaVuSans-63" d="M 3122 3366 
L 3122 2828 
Q 2878 2963 2633 3030 
Q 2388 3097 2138 3097 
Q 1578 3097 1268 2742 
Q 959 2388 959 1747 
Q 959 1106 1268 751 
Q 1578 397 2138 397 
Q 2388 397 2633 464 
Q 2878 531 3122 666 
L 3122 134 
Q 2881 22 2623 -34 
Q 2366 -91 2075 -91 
Q 1284 -91 818 406 
Q 353 903 353 1747 
Q 353 2603 823 3093 
Q 1294 3584 2113 3584 
Q 2378 3584 2631 3529 
Q 2884 3475 3122 3366 
z
" transform="scale(0.015625)"/>
      <path id="DejaVuSans-76" d="M 191 3500 
L 800 3500 
L 1894 563 
L 2988 3500 
L 3597 3500 
L 2284 0 
L 1503 0 
L 191 3500 
z
" transform="scale(0.015625)"/>
     </defs>
     <use xlink:href="#DejaVuSans-48"/>
     <use xlink:href="#DejaVuSans-69" x="75.195312"/>
     <use xlink:href="#DejaVuSans-73" x="102.978516"/>
     <use xlink:href="#DejaVuSans-74" x="155.078125"/>
     <use xlink:href="#DejaVuSans-6f" x="194.287109"/>
     <use xlink:href="#DejaVuSans-67" x="255.46875"/>
     <use xlink:href="#DejaVuSans-72" x="318.945312"/>
     <use xlink:href="#DejaVuSans-61" x="360.058594"/>
     <use xlink:href="#DejaVuSans-6d" x="421.337891"/>
     <use xlink:href="#DejaVuSans-20" x="518.75"/>
     <use xlink:href="#DejaVuSans-6f" x="550.537109"/>
     <use xlink:href="#DejaVuSans-66" x="611.71875"/>
     <use xlink:href="#DejaVuSans-20" x="646.923828"/>
     <use xlink:href="#DejaVuSans-72" x="678.710938"/>
     <use xlink:href="#DejaVuSans-61" x="719.824219"/>
     <use xlink:href="#DejaVuSans-74" x="781.103516"/>
     <use xlink:href="#DejaVuSans-69" x="820.3125"/>
     <use xlink:href="#DejaVuSans-6f" x="848.095703"/>
     <use xlink:href="#DejaVuSans-20" x="909.277344"/>
     <use xlink:href="#DejaVuSans-69" x="941.064453"/>
     <use xlink:href="#DejaVuSans-6e" x="968.847656"/>
     <use xlink:href="#DejaVuSans-65" x="1032.226562"/>
     <use xlink:href="#DejaVuSans-72" x="1093.75"/>
     <use xlink:href="#DejaVuSans-74" x="1134.863281"/>
     <use xlink:href="#DejaVuSans-69" x="1174.072266"/>
     <use xlink:href="#DejaVuSans-61" x="1201.855469"/>
     <use xlink:href="#DejaVuSans-20" x="1263.134766"/>
     <use xlink:href="#DejaVuSans-56" x="1294.921875"/>
     <use xlink:href="#DejaVuSans-61" x="1355.580078"/>
     <use xlink:href="#DejaVuSans-6e" x="1416.859375"/>
     <use xlink:href="#DejaVuSans-69" x="1480.238281"/>
     <use xlink:href="#DejaVuSans-6c" x="1508.021484"/>
     <use xlink:href="#DejaVuSans-6c" x="1535.804688"/>
     <use xlink:href="#DejaVuSans-61" x="1563.587891"/>
     <use xlink:href="#DejaVuSans-2c" x="1624.867188"/>
     <use xlink:href="#DejaVuSans-20" x="1656.654297"/>
     <use xlink:href="#DejaVuSans-4b" x="1688.441406"/>
     <use xlink:href="#DejaVuSans-2d" x="1743.517578"/>
     <use xlink:href="#DejaVuSans-4d" x="1779.601562"/>
     <use xlink:href="#DejaVuSans-65" x="1865.880859"/>
     <use xlink:href="#DejaVuSans-61" x="1927.404297"/>
     <use xlink:href="#DejaVuSans-6e" x="1988.683594"/>
     <use xlink:href="#DejaVuSans-73" x="2052.0625"/>
     <use xlink:href="#DejaVuSans-2b" x="2104.162109"/>
     <use xlink:href="#DejaVuSans-2b" x="2187.951172"/>
     <use xlink:href="#DejaVuSans-2c" x="2271.740234"/>
     <use xlink:href="#DejaVuSans-20" x="2303.527344"/>
     <use xlink:href="#DejaVuSans-53" x="2335.314453"/>
     <use xlink:href="#DejaVuSans-70" x="2398.791016"/>
     <use xlink:href="#DejaVuSans-65" x="2462.267578"/>
     <use xlink:href="#DejaVuSans-63" x="2523.791016"/>
     <use xlink:href="#DejaVuSans-75" x="2578.771484"/>
     <use xlink:href="#DejaVuSans-6c" x="2642.150391"/>
     <use xlink:href="#DejaVuSans-61" x="2669.933594"/>
     <use xlink:href="#DejaVuSans-74" x="2731.212891"/>
     <use xlink:href="#DejaVuSans-69" x="2770.421875"/>
     <use xlink:href="#DejaVuSans-76" x="2798.205078"/>
     <use xlink:href="#DejaVuSans-65" x="2857.384766"/>
     <use xlink:href="#DejaVuSans-20" x="2918.908203"/>
     <use xlink:href="#DejaVuSans-4b" x="2950.695312"/>
     <use xlink:href="#DejaVuSans-2d" x="3005.771484"/>
     <use xlink:href="#DejaVuSans-4d" x="3041.855469"/>
     <use xlink:href="#DejaVuSans-65" x="3128.134766"/>
     <use xlink:href="#DejaVuSans-61" x="3189.658203"/>
     <use xlink:href="#DejaVuSans-6e" x="3250.9375"/>
     <use xlink:href="#DejaVuSans-73" x="3314.316406"/>
    </g>
   </g>
   <g id="legend_1">
    <g id="patch_7">
     <path d="M 306.539062 75.186875 
L 424.203125 75.186875 
Q 426.203125 75.186875 426.203125 73.186875 
L 426.203125 29.318125 
Q 426.203125 27.318125 424.203125 27.318125 
L 306.539062 27.318125 
Q 304.539062 27.318125 304.539062 29.318125 
L 304.539062 73.186875 
Q 304.539062 75.186875 306.539062 75.186875 
z
" style="fill: #ffffff; opacity: 0.8; stroke: #cccccc; stroke-linejoin: miter"/>
    </g>
    <g id="patch_8">
     <path d="M 308.539062 38.916563 
L 328.539062 38.916563 
L 328.539062 31.916563 
L 308.539062 31.916563 
z
" style="fill: #1f77b4; fill-opacity: 0.25; stroke: #1f77b4; stroke-linejoin: miter"/>
    </g>
    <g id="text_20">
     <!-- ratio_vanilla -->
     <g transform="translate(336.539062 38.916563)scale(0.1 -0.1)">
      <defs>
       <path id="DejaVuSans-5f" d="M 3263 -1063 
L 3263 -1509 
L -63 -1509 
L -63 -1063 
L 3263 -1063 
z
" transform="scale(0.015625)"/>
      </defs>
      <use xlink:href="#DejaVuSans-72"/>
      <use xlink:href="#DejaVuSans-61" x="41.113281"/>
      <use xlink:href="#DejaVuSans-74" x="102.392578"/>
      <use xlink:href="#DejaVuSans-69" x="141.601562"/>
      <use xlink:href="#DejaVuSans-6f" x="169.384766"/>
      <use xlink:href="#DejaVuSans-5f" x="230.566406"/>
      <use xlink:href="#DejaVuSans-76" x="280.566406"/>
      <use xlink:href="#DejaVuSans-61" x="339.746094"/>
      <use xlink:href="#DejaVuSans-6e" x="401.025391"/>
      <use xlink:href="#DejaVuSans-69" x="464.404297"/>
      <use xlink:href="#DejaVuSans-6c" x="492.1875"/>
      <use xlink:href="#DejaVuSans-6c" x="519.970703"/>
      <use xlink:href="#DejaVuSans-61" x="547.753906"/>
     </g>
    </g>
    <g id="patch_9">
     <path d="M 308.539062 53.872813 
L 328.539062 53.872813 
L 328.539062 46.872813 
L 308.539062 46.872813 
z
" style="fill: #ff7f0e; fill-opacity: 0.25; stroke: #ff7f0e; stroke-linejoin: miter"/>
    </g>
    <g id="text_21">
     <!-- ratio_pp -->
     <g transform="translate(336.539062 53.872813)scale(0.1 -0.1)">
      <use xlink:href="#DejaVuSans-72"/>
      <use xlink:href="#DejaVuSans-61" x="41.113281"/>
      <use xlink:href="#DejaVuSans-74" x="102.392578"/>
      <use xlink:href="#DejaVuSans-69" x="141.601562"/>
      <use xlink:href="#DejaVuSans-6f" x="169.384766"/>
      <use xlink:href="#DejaVuSans-5f" x="230.566406"/>
      <use xlink:href="#DejaVuSans-70" x="280.566406"/>
      <use xlink:href="#DejaVuSans-70" x="344.042969"/>
     </g>
    </g>
    <g id="patch_10">
     <path d="M 308.539062 68.829063 
L 328.539062 68.829063 
L 328.539062 61.829063 
L 308.539062 61.829063 
z
" style="fill: #2ca02c; fill-opacity: 0.25; stroke: #2ca02c; stroke-linejoin: miter"/>
    </g>
    <g id="text_22">
     <!-- ratio_speculation -->
     <g transform="translate(336.539062 68.829063)scale(0.1 -0.1)">
      <use xlink:href="#DejaVuSans-72"/>
      <use xlink:href="#DejaVuSans-61" x="41.113281"/>
      <use xlink:href="#DejaVuSans-74" x="102.392578"/>
      <use xlink:href="#DejaVuSans-69" x="141.601562"/>
      <use xlink:href="#DejaVuSans-6f" x="169.384766"/>
      <use xlink:href="#DejaVuSans-5f" x="230.566406"/>
      <use xlink:href="#DejaVuSans-73" x="280.566406"/>
      <use xlink:href="#DejaVuSans-70" x="332.666016"/>
      <use xlink:href="#DejaVuSans-65" x="396.142578"/>
      <use xlink:href="#DejaVuSans-63" x="457.666016"/>
      <use xlink:href="#DejaVuSans-75" x="512.646484"/>
      <use xlink:href="#DejaVuSans-6c" x="576.025391"/>
      <use xlink:href="#DejaVuSans-61" x="603.808594"/>
      <use xlink:href="#DejaVuSans-74" x="665.087891"/>
      <use xlink:href="#DejaVuSans-69" x="704.296875"/>
      <use xlink:href="#DejaVuSans-6f" x="732.080078"/>
      <use xlink:href="#DejaVuSans-6e" x="793.261719"/>
     </g>
    </g>
   </g>
  </g>
 </g>
 <defs>
  <clipPath id="pddb870b6d4">
   <rect x="40.603125" y="22.318125" width="390.6" height="271.8"/>
  </clipPath>
 </defs>
</svg>
